<?xml version="1.0" encoding="UTF-8"?>
<svg width="115px" height="94px" viewBox="0 0 115 94" version="1.1" xmlns="http://www.w3.org/2000/svg" xmlns:xlink="http://www.w3.org/1999/xlink">
    <!-- Generator: Sketch 51.2 (57519) - http://www.bohemiancoding.com/sketch -->
    <title>Logo Monogram Copy</title>
    <desc>Created with Sketch.</desc>
    <defs></defs>
    <g id="Symbols" stroke="none" stroke-width="1" fill="none" fill-rule="evenodd">
        <g id="CTA" transform="translate(-666.000000, -77.000000)">
            <g id="Logo-Monogram-Copy" transform="translate(666.000000, 77.000000)">
                <path d="M110.221186,6.41420434 C115.587322,5.22866301 114.979242,0 114.979242,0 C114.624678,0.791234213 113.788141,1.19929623 113.788141,1.19929623 C108.542092,2.55055135 109.158958,5.3735807 109.158958,5.3735807 L110.221186,6.41420434 Z M109.863367,6.64410766 L108.905768,5.68814215 L107.090479,7.51083007 L107.944101,8.38180995 L109.863367,6.64410766 Z M107.691073,8.6963714 L106.837451,7.82621026 L91.0517885,23.8131696 L92.3081393,23.8131696 L107.691073,8.6963714 Z M5.74555516,9.61369219 C6.02494309,9.86586534 6.45338132,9.85554917 6.7208908,9.58552739 L7.78507083,8.51542897 L23.0033334,23.8131696 L24.6671317,23.8131696 L8.61558687,7.67965508 L9.67960418,6.60726418 C9.94630006,6.33806114 9.95736493,5.90936678 9.70694091,5.62640885 L4.97784852,0.336012542 C4.75736474,0.0874418605 4.37904386,0.0643532793 4.12943343,0.282139186 C2.81076142,1.43247452 1.57719126,2.67303545 0.434743558,4.00103824 C0.218327742,4.25124641 0.242247385,4.63196237 0.489254309,4.85400575 L5.74555516,9.61369219 Z M4.39271222,1.7565334 C4.52907046,1.61865691 4.73767578,1.60834074 4.85955206,1.73262608 L8.88569984,5.78082397 C9.00659981,5.90330807 8.99472134,6.11421653 8.85836311,6.25045554 C8.72200487,6.38767703 8.51339955,6.39881195 8.39233687,6.27878408 L4.36797899,2.22731121 C4.24528912,2.10384461 4.25635399,1.89457364 4.39271222,1.7565334 Z M3.17183412,2.20062016 C3.30819236,2.06356241 3.52542177,2.06094243 3.65917651,2.1947252 L8.03370494,6.59776675 C8.16664609,6.73154952 8.16404259,6.95015417 8.02784707,7.08557443 C7.89051252,7.22361467 7.67507302,7.22705339 7.54213187,7.09408937 L3.16678985,2.69022907 C3.03303511,2.5564463 3.03563861,2.33784165 3.17183412,2.20062016 Z M2.34050449,3.03655779 C2.47670001,2.89933629 2.69392942,2.89769881 2.82784688,3.03049909 L7.20318891,7.43452313 C7.33596733,7.56814215 7.33352655,7.78691055 7.19635472,7.9239683 C7.05918289,8.05938856 6.84276708,8.06282728 6.71063952,7.92904451 L2.3352975,3.52600296 C2.20251907,3.39238394 2.20512257,3.17377929 2.34050449,3.03655779 Z M1.90002508,4.26500131 C2.03556973,4.12958105 2.24417505,4.11844613 2.36686492,4.24027524 L6.3912228,8.29174811 C6.51309907,8.41177598 6.5020342,8.62268444 6.36567597,8.76072468 C6.22866686,8.89614494 6.01989882,8.90646111 5.89883613,8.78643324 L1.87447825,4.73561536 C1.75260198,4.61395 1.76382957,4.40304155 1.90002508,4.26500131 Z M7.30879332,85.3034649 L8.1624154,86.1746085 L28.6124083,65.4631687 L27.4989245,65.4631687 L7.30879332,85.3034649 Z M5.13649922,87.3567111 L6.09393581,88.3116941 L7.90938789,86.4893337 L7.0557658,85.6190088 L5.13649922,87.3567111 Z M109.391483,83.5272816 C109.112095,83.2752722 108.682681,83.2854246 108.415171,83.5556101 L107.351154,84.6255448 L89.8727291,67.0561171 L88.837513,67.6868774 L106.520475,85.4613187 L105.456458,86.5328909 C105.190738,86.8020939 105.17886,87.231607 105.429284,87.5144012 L110.159027,92.8049612 C110.379674,93.0533682 110.757018,93.0766205 111.006629,92.8589983 C112.326277,91.7084993 113.559033,90.4677746 114.701318,89.1399355 C114.917897,88.8897274 114.893815,88.5090114 114.64697,88.2859855 L109.391483,83.5272816 Z M110.74335,91.3842766 C110.607154,91.5224806 110.3992,91.532633 110.27651,91.4085115 L106.251339,87.3601498 C106.130439,87.2376657 106.141503,87.0267573 106.277862,86.8905182 C106.414057,86.7532968 106.622825,86.7421618 106.744539,86.8621897 L110.769059,90.9136626 C110.890936,91.0371292 110.880522,91.2462364 110.74335,91.3842766 Z M111.965042,90.9401899 C111.82787,91.0774114 111.611454,91.0800314 111.476886,90.9462486 L107.102357,86.543207 C106.969579,86.4094243 106.972833,86.1900009 107.109191,86.0553994 C107.24555,85.9173591 107.461803,85.9139204 107.594906,86.0467207 L111.969272,90.4507447 C112.10319,90.5845275 112.100586,90.8031321 111.965042,90.9401899 Z M112.796534,90.104416 C112.659362,90.2416375 112.443109,90.243275 112.308378,90.1104747 L107.933036,85.7064507 C107.800095,85.5728316 107.803512,85.354227 107.93987,85.2170055 C108.077042,85.0806027 108.293458,85.0773278 108.426236,85.2119293 L112.800765,89.6148071 C112.934519,89.7485898 112.931916,89.9663758 112.796534,90.104416 Z M113.2362,88.8759725 C113.100655,89.0113927 112.891887,89.0225277 112.769197,88.9006985 L108.744839,84.8492257 C108.623126,84.7291978 108.634028,84.5182893 108.7712,84.3802491 C108.907558,84.2448288 109.116326,84.2336939 109.237226,84.3545405 L113.261746,88.4053584 C113.384436,88.5270238 113.373209,88.7379322 113.2362,88.8759725 Z M4.77851817,87.5856319 C-0.587617777,88.7721557 0.0207872894,94 0.0207872894,94 C0.37502581,93.2095845 1.21172516,92.8013588 1.21172516,92.8013588 C6.45777473,91.4496124 5.84090829,88.627238 5.84090829,88.627238 L4.77851817,87.5856319 Z" id="Fill-1" fill="#000105"></path>
                <path d="M51,57 L51,33 L56.3310043,33 C57.7375239,33 59.0063422,33.3764436 60.1366531,34.1286756 C61.1033028,34.7677123 61.79455,35.7564911 62.2091048,37.0953395 C62.4343608,37.8105496 62.5475531,38.6587763 62.5475531,39.6416578 C62.5475531,41.2488328 62.1271936,42.5378819 61.285507,43.507003 C60.9343205,43.9150627 60.5197657,44.2282742 60.042165,44.4451634 C60.8338663,44.751331 61.5051195,45.3577689 62.0580205,46.2625113 C62.4217839,46.8756655 62.6918653,47.6663936 62.868426,48.6364977 C62.956142,49.1338357 63,49.6888361 63,50.3019903 C63,51.819887 62.7171804,53.108936 62.1523474,54.1673356 C61.7126387,54.9975428 61.0905646,55.6604964 60.2877375,56.1579982 C59.3828438,56.719715 58.4853672,57 57.5930504,57 L51,57 Z M54.8427347,42.7993284 L56.3310043,42.7993284 C57.4360001,42.7993284 58.1772325,42.2505529 58.5537341,41.1526743 C58.6922415,40.7444508 58.7614146,40.2410517 58.7614146,39.6416578 C58.7614146,38.645835 58.5226143,37.892784 58.0456585,37.3826685 C57.6057886,36.9108854 57.0341834,36.6749939 56.3310043,36.6749939 L54.8427347,36.6749939 L54.8427347,42.7993284 Z M54.8427347,53.4213285 L56.3310043,53.4213285 C57.5366155,53.4213285 58.3723361,52.7890081 58.8365537,51.5266607 C58.99957,51.0927185 59.0814813,50.5953805 59.0814813,50.0334999 C59.0814813,48.6938324 58.8297815,47.7178311 58.3275107,47.1056598 C57.87587,46.5437792 57.2099379,46.2625113 56.3310043,46.2625113 L54.8427347,46.2625113 L54.8427347,53.4213285 Z" id="Fill-4" fill="#161617"></path>
                <path d="M18.5517105,44.5000819 L57.0002426,69.6748934 L95.4490982,44.5000819 L57.0002426,19.3251066 L18.5517105,44.5000819 Z M57.0002426,72 L15,44.5000819 L57.0002426,17 L99,44.5000819 L57.0002426,72 Z" id="Fill-5" fill="#161617"></path>
            </g>
        </g>
    </g>
</svg>