<?xml version="1.0" encoding="UTF-8"?>
<svg width="120px" height="98px" viewBox="0 0 120 98" version="1.1" xmlns="http://www.w3.org/2000/svg" xmlns:xlink="http://www.w3.org/1999/xlink">
    <!-- Generator: Sketch 51.2 (57519) - http://www.bohemiancoding.com/sketch -->
    <title>Logo Monogram</title>
    <desc>Created with Sketch.</desc>
    <defs></defs>
    <g id="Page-1" stroke="none" stroke-width="1" fill="none" fill-rule="evenodd">
        <g id="About" transform="translate(-660.000000, -50.000000)" fill="#FFFFFF">
            <g id="Logo-Monogram" transform="translate(660.000000, 50.000000)">
                <path d="M114.808983,6.82803904 C120.398475,5.59589122 119.765085,0.161676855 119.765085,0.161676855 C119.395763,0.984016393 118.524407,1.40812031 118.524407,1.40812031 C113.06,2.81249653 113.702542,5.74650597 113.702542,5.74650597 L114.808983,6.82803904 Z M114.436271,7.06698041 L113.438814,6.07343359 L111.547966,7.96777577 L112.437119,8.87299597 L114.436271,7.06698041 Z M112.173559,9.19992359 L111.284407,8.29555432 L94.8416949,24.9109996 L96.150339,24.9109996 L112.173559,9.19992359 Z M5.98474576,10.1533065 C6.27576271,10.4153932 6.7220339,10.4046714 7.00067797,10.1240345 L8.10915254,9.01186788 L23.9608475,24.9109996 L25.6938983,24.9109996 L8.97423729,8.1432377 L10.0825424,7.02868852 C10.360339,6.74890247 10.3718644,6.3033551 10.1110169,6.00927341 L5.18508475,0.510898861 C4.95542373,0.252556266 4.56135593,0.228560017 4.30135593,0.454907613 C2.92779661,1.65046541 1.64288136,2.93979578 0.452881356,4.32000556 C0.227457627,4.58005001 0.252372881,4.97573284 0.509661017,5.20650528 L5.98474576,10.1533065 Z M4.57559322,1.98726382 C4.71762712,1.84396707 4.93491525,1.83324535 5.06186441,1.96241664 L9.25559322,6.16975896 C9.38152542,6.29705821 9.36915254,6.51625799 9.22711864,6.65785288 C9.08508475,6.80046888 8.86779661,6.81204154 8.74169492,6.68729508 L4.54983051,2.47654904 C4.4220339,2.34822867 4.43355932,2.13073076 4.57559322,1.98726382 Z M3.30389831,2.4488087 C3.4459322,2.30636288 3.67220339,2.3036399 3.81152542,2.44268199 L8.36813559,7.01881773 C8.50661017,7.15785982 8.50389831,7.38505835 8.3620339,7.52580231 C8.21898305,7.66926924 7.99457627,7.67284315 7.85610169,7.53465199 L3.29864407,2.95766532 C3.15932203,2.81862323 3.1620339,2.5914247 3.30389831,2.4488087 Z M2.4379661,3.31760906 C2.57983051,3.17499305 2.80610169,3.17329119 2.94559322,3.31131217 L7.50305085,7.88846902 C7.64135593,8.02734093 7.63881356,8.25470964 7.4959322,8.39715546 C7.35305085,8.53789942 7.12762712,8.54147333 6.99,8.40243123 L2.43254237,3.8262955 C2.29423729,3.68742359 2.29694915,3.46022506 2.4379661,3.31760906 Z M1.97915254,4.59434565 C2.12033898,4.45360169 2.33762712,4.44202904 2.46542373,4.56864754 L6.65728814,8.77939358 C6.78423729,8.90414004 6.77271186,9.12333982 6.63067797,9.26680675 C6.4879661,9.40755071 6.27050847,9.41827244 6.14440678,9.29352598 L1.95254237,5.08346068 C1.82559322,4.95701236 1.83728814,4.73781259 1.97915254,4.59434565 Z M7.61305085,88.8186267 L8.50220339,89.7240171 L29.8033898,68.1983607 L28.6435593,68.1983607 L7.61305085,88.8186267 Z M5.35033898,90.952591 L6.34762712,91.9451167 L8.23864407,90.0511149 L7.34949153,89.1465754 L5.35033898,90.952591 Z M113.944746,86.9726174 C113.653729,86.7107009 113.206441,86.7212524 112.927797,87.0020596 L111.819492,88.114056 L93.6135593,69.8539316 L92.5352542,70.5094887 L110.954237,88.9826862 L109.845932,90.0963844 C109.569153,90.3761705 109.55678,90.8225688 109.817627,91.1164803 L114.744237,96.615025 C114.974068,96.8731974 115.367119,96.8973639 115.627119,96.6711864 C117.001695,95.4754585 118.285763,94.1859579 119.475593,92.8059183 C119.701186,92.5458739 119.676102,92.150191 119.418983,91.9183975 L113.944746,86.9726174 Z M115.352881,95.1384899 C115.211017,95.282127 114.994407,95.2926785 114.86661,95.1636774 L110.673898,90.9561649 C110.547966,90.8288657 110.559492,90.6096659 110.701525,90.468071 C110.84339,90.325455 111.060847,90.3138823 111.187627,90.4386288 L115.379661,94.6493748 C115.50661,94.7776952 115.495763,94.9950229 115.352881,95.1384899 Z M116.625424,94.676945 C116.482542,94.819561 116.257119,94.822284 116.116949,94.6832419 L111.560339,90.1071061 C111.422034,89.968064 111.425424,89.7400146 111.567458,89.6001216 C111.709492,89.4566546 111.934746,89.4530807 112.07339,89.5911017 L116.629831,94.1682585 C116.769322,94.3073006 116.76661,94.5344992 116.625424,94.676945 Z M117.491525,93.8083148 C117.348644,93.9509308 117.12339,93.9526327 116.983051,93.8146117 L112.425593,89.2374548 C112.287119,89.0985829 112.290678,88.8713844 112.432712,88.7287684 C112.575593,88.5870033 112.801017,88.5835996 112.939322,88.7234926 L117.495932,93.2994582 C117.635254,93.4385003 117.632542,93.6648479 117.491525,93.8083148 Z M117.949492,92.5315782 C117.808305,92.6723222 117.590847,92.6838948 117.463051,92.5572763 L113.271186,88.3465303 C113.144407,88.2217838 113.155763,88.0025841 113.298644,87.8591171 C113.440678,87.7183732 113.658136,87.7068005 113.784068,87.8323979 L117.976102,92.0424632 C118.103898,92.1689115 118.092203,92.3881113 117.949492,92.5315782 Z M4.97745763,91.1905113 C-0.612033898,92.4236802 0.0216949153,97.8570436 0.0216949153,97.8570436 C0.390677966,97.035555 1.26220339,96.6112809 1.26220339,96.6112809 C6.72661017,95.2063941 6.0840678,92.2730654 6.0840678,92.2730654 L4.97745763,91.1905113 Z" id="Fill-1"></path>
                <path d="M53.5862712,58.9504446 L53.5862712,34.0168102 L59.19,34.0168102 C60.6684746,34.0168102 62.0022034,34.407898 63.190339,35.1893929 C64.2064407,35.8532891 64.9330508,36.8805328 65.3688136,38.2714643 C65.6055932,39.0144971 65.7245763,39.895721 65.7245763,40.916838 C65.7245763,42.5865345 65.2827119,43.9257294 64.3979661,44.9325507 C64.0288136,45.3564844 63.5930508,45.6818804 63.0910169,45.9072069 C63.9232203,46.2252848 64.6288136,46.855314 65.21,47.7952522 C65.5923729,48.432259 65.8762712,49.2537476 66.0618644,50.26159 C66.1540678,50.7782752 66.2001695,51.3548659 66.2001695,51.9918727 C66.2001695,53.5688177 65.9028814,54.9080126 65.3091525,56.0075854 C64.8469492,56.8700889 64.1930508,57.5588323 63.3491525,58.0756877 C62.3979661,58.659256 61.4545763,58.9504446 60.5166102,58.9504446 L53.5862712,58.9504446 Z M57.6255932,44.1973465 L59.19,44.1973465 C60.3515254,44.1973465 61.130678,43.6272228 61.5264407,42.4866352 C61.6720339,42.0625313 61.7447458,41.5395492 61.7447458,40.916838 C61.7447458,39.8822763 61.4937288,39.0999305 60.9923729,38.5699708 C60.53,38.0798347 59.9291525,37.8347666 59.19,37.8347666 L57.6255932,37.8347666 L57.6255932,44.1973465 Z M57.6255932,55.2325577 L59.19,55.2325577 C60.4572881,55.2325577 61.3357627,54.5756391 61.8237288,53.2641845 C61.9950847,52.8133614 62.0811864,52.2966762 62.0811864,51.7129376 C62.0811864,50.3211552 61.8166102,49.307186 61.2886441,48.6712003 C60.8138983,48.0874618 60.1138983,47.7952522 59.19,47.7952522 L57.6255932,47.7952522 L57.6255932,55.2325577 Z" id="Fill-4"></path>
                <path d="M19.6027119,46.4837976 L59.8932203,72.6368158 L100.184068,46.4837976 L59.8932203,20.3306092 L19.6027119,46.4837976 Z M59.8932203,75.052268 L15.8808475,46.4837976 L59.8932203,17.915157 L103.905085,46.4837976 L59.8932203,75.052268 Z" id="Fill-5"></path>
            </g>
        </g>
    </g>
</svg>