<?xml version="1.0" encoding="UTF-8"?>
<svg width="386px" height="398px" viewBox="0 0 386 398" version="1.1" xmlns="http://www.w3.org/2000/svg" xmlns:xlink="http://www.w3.org/1999/xlink">
    <!-- Generator: Sketch 51.2 (57519) - http://www.bohemiancoding.com/sketch -->
    <title>Logo Burgerart</title>
    <desc>Created with Sketch.</desc>
    <defs>
        <polygon id="path-1" points="0.0413005358 0.619526198 385.661825 0.619526198 385.661825 313.534577 0.0413005358 313.534577"></polygon>
        <polygon id="path-3" points="0.0524626335 0.455205882 20.741573 0.455205882 20.741573 16.3058824 0.0524626335 16.3058824"></polygon>
    </defs>
    <g id="Page-1" stroke="none" stroke-width="1" fill="none" fill-rule="evenodd">
        <g id="Home" transform="translate(-524.000000, -215.000000)">
            <g id="Logo-Burgerart" transform="translate(524.000000, 215.000000)">
                <g id="Group-3">
                    <mask id="mask-2" fill="white">
                        <use xlink:href="#path-1"></use>
                    </mask>
                    <g id="Clip-2"></g>
                    <path d="M369.635665,21.9715207 C387.632373,18.0253932 385.592127,0.619526198 385.592127,0.619526198 C384.401295,3.25096544 381.597677,4.61034757 381.597677,4.61034757 C364.003649,9.11067939 366.073494,18.5060245 366.073494,18.5060245 L369.635665,21.9715207 Z M368.435884,22.7368178 L365.222703,19.5552998 L359.137757,25.6219808 L361.999884,28.5222711 L368.435884,22.7368178 Z M361.149782,29.5687959 L358.286278,26.6712561 L305.350693,79.890688 L309.563347,79.890688 L361.149782,29.5687959 Z M19.2680766,32.621733 C20.2049104,33.4612907 21.6442341,33.424848 22.5418324,32.5268444 L26.1095104,28.9671473 L77.1445824,79.890688 L82.7242848,79.890688 L28.8952315,26.1844364 L32.4629094,22.6158004 C33.3556894,21.7198597 33.3942365,20.2903425 32.5537706,19.3497078 L16.6957416,1.73893647 C15.9537086,0.911067939 14.6878472,0.83543211 13.8515114,1.55809807 C9.42684729,5.38802141 5.29197531,9.51773766 1.46066228,13.9376205 C0.734461192,14.7730526 0.813620552,16.0375461 1.64169629,16.7787772 L19.2680766,32.621733 Z M14.7319011,6.46686337 C15.1917137,6.00823521 15.8890044,5.97179249 16.2985681,6.38641435 L29.7997132,19.8633439 C30.2051468,20.2724649 30.167288,20.9731277 29.7095404,21.4262551 C29.2517928,21.8828205 28.5524371,21.9192632 28.1456268,21.5204561 L14.6493,8.03527542 C14.2383597,7.62065356 14.2748418,6.92617913 14.7319011,6.46686337 Z M10.6383297,7.94520002 C11.0960773,7.48794706 11.823655,7.48175867 12.2731425,7.92525967 L26.9437812,22.5834833 C27.3891386,23.0290471 27.3788135,23.7558386 26.9217542,24.2069032 C26.4640066,24.6634686 25.7384939,24.6779082 25.2931364,24.2350948 L10.6224978,9.57618353 C10.172322,9.13061974 10.1826471,8.40176539 10.6383297,7.94520002 Z M7.8505435,10.7279109 C8.30760277,10.270658 9.03586888,10.2644696 9.48535638,10.7079706 L24.15806,25.3689446 C24.6034175,25.8138208 24.5937807,26.5406123 24.1360331,26.9971777 C23.6762205,27.4489299 22.9507077,27.4606191 22.5053503,27.0157429 L7.83402329,12.3568316 C7.38660082,11.9119554 7.39486093,11.1844763 7.8505435,10.7279109 Z M6.37267267,14.8170589 C6.82629022,14.3659943 7.52771098,14.3281764 7.93933966,14.7345471 L21.4370431,28.2197277 C21.8438534,28.6205976 21.8053062,29.3233233 21.3482469,29.782639 C20.8904993,30.233016 20.1890786,30.2694587 19.78571,29.8692764 L6.28800657,16.3840957 C5.87706624,15.9770374 5.9156134,15.2743118 6.37267267,14.8170589 Z M24.5125563,284.585307 L27.3746834,287.482159 L95.9555998,218.537351 L92.2206546,218.537351 L24.5125563,284.585307 Z M17.2257651,291.417285 L20.4389468,294.598803 L26.5245807,288.531434 L23.6617653,285.631832 L17.2257651,291.417285 Z M366.852009,278.671273 C365.914487,277.831027 364.477228,277.86747 363.580318,278.766161 L360.009887,282.325171 L301.397543,223.838735 L297.924168,225.940723 L357.224166,285.108569 L353.658553,288.676518 C352.763708,289.572458 352.725161,291.002663 353.565627,291.94261 L369.425721,309.553382 C370.165689,310.38125 371.433615,310.457574 372.270639,309.73697 C376.695303,305.904297 380.828799,301.775268 384.661488,297.353322 C385.386313,296.519265 385.305777,295.254772 384.477701,294.514228 L366.852009,278.671273 Z M371.387496,304.825455 C370.929748,305.28477 370.232458,305.321213 369.820829,304.905904 L356.321749,291.429662 C355.916315,291.020541 355.954863,290.31919 356.411922,289.866751 C356.867604,289.409498 357.56696,289.373055 357.976524,289.771862 L371.472162,303.257043 C371.883103,303.671664 371.845244,304.366139 371.387496,304.825455 Z M375.483133,303.347806 C375.026073,303.805059 374.297807,303.810559 373.849008,303.367746 L359.175616,288.708835 C358.730259,288.263959 358.740584,287.535104 359.198331,287.085415 C359.657456,286.628849 360.380903,286.615097 360.826949,287.059286 L375.496899,301.716822 C375.947075,302.161698 375.93675,302.890553 375.483133,303.347806 Z M378.271607,300.565095 C377.813859,301.02166 377.086282,301.027848 376.636794,300.585035 L361.963402,285.924061 C361.51598,285.478497 361.525616,284.752393 361.983364,284.29514 C362.445242,283.843388 363.170754,283.831699 363.614735,284.276575 L378.287439,298.936174 C378.734173,299.38105 378.724536,300.107842 378.271607,300.565095 Z M379.746725,296.475259 C379.293107,296.926324 378.591686,296.964142 378.182811,296.557771 L364.684419,283.07259 C364.276232,282.67172 364.314091,281.969682 364.773215,281.510367 C365.230963,281.059302 365.930319,281.022859 366.335752,281.423729 L379.831391,294.908222 C380.242331,295.315281 380.206537,296.016631 379.746725,296.475259 Z M16.0266729,292.181894 C-1.96865887,296.129397 0.069522566,313.534577 0.069522566,313.534577 C1.26104302,310.90245 4.06466106,309.543068 4.06466106,309.543068 C21.6586893,305.042736 19.5881558,295.647391 19.5881558,295.647391 L16.0266729,292.181894 Z" id="Fill-1" fill="#FFFFFF" mask="url(#mask-2)"></path>
                </g>
                <path d="M192.448931,238.1181 L191.78098,238.509264 L191.450126,238.55705 L191.36065,238.661497 L190.844601,238.83694 L190.175957,239.283399 L189.100161,240.626872 L187.960553,241.846101 L187.724724,242.479609 L187.442423,242.715809 L187.255147,243.241457 L186.772391,243.963027 L186.263972,245.174747 L185.496141,246.631542 L184.789348,248.131344 L184.504966,248.473356 L184.504966,248.671327 L184.220584,249.013339 L184.16995,249.31917 L184.034002,249.496662 L183.414604,250.576628 L183.278656,251.003973 L182.99358,251.292055 L182.942947,251.599934 L182.709892,251.933755 L182.571863,252.347446 L182.474063,252.359734 L182.474063,252.608905 L182.238234,252.838961 L181.951772,253.690919 L181.718717,253.972857 L181.66739,254.374261 L181.295613,254.830277 L181.24706,255.03644 L180.960597,255.324522 L180.912044,255.52659 L180.627662,255.813989 L180.442467,256.391519 L180.292646,256.515763 L180.056817,257.25713 L179.772435,257.49333 L179.733593,257.695398 L179.114195,259.132395 L178.36093,260.639706 L178.074468,260.927788 L177.887885,261.503953 L177.505704,262.056906 L177.45507,262.362738 L177.219241,262.60713 L176.847464,263.353276 L176.2787,264.678317 L176.130267,264.804609 L176.092118,265.16164 L175.657222,265.669538 L175.374921,266.259356 L174.804076,266.993214 L174.249185,267.370725 L173.681115,267.292902 L173.683195,267.202791 L173.495919,267.226684 L173.495919,267.120872 L173.248299,267.155005 L173.248299,267.010964 L173.063798,267.036905 L173.063798,266.931092 L172.83005,266.965225 L172.780803,266.81504 L171.324907,266.517401 L170.288647,266.213618 L169.535382,266.161736 L169.1532,266.017695 L168.783504,266.069577 L168.684317,265.939871 L167.833252,265.847712 L166.276782,265.865462 L165.572069,266.013599 L164.016293,266.375408 L163.733992,266.321478 L162.980033,266.479855 L161.609451,266.914709 L161.188427,267.314747 L159.732531,267.871114 L159.061805,268.424068 L158.024158,269.366137 L157.503948,269.989405 L156.415667,271.333561 L156.378905,271.63871 L156.094523,271.92884 L156.04389,272.130907 L155.710261,272.834728 L155.373858,274.479937 L155.286463,274.595306 L155.237216,275.403574 L155.050634,276.228909 L155,276.945019 L155.229586,278.710375 L155.414088,279.339787 L155.842741,280.775419 L156.127123,281.036877 L156.779121,282.048578 L157.345804,282.572178 L157.345804,282.718267 L158.048435,283.224117 L158.430616,283.222069 L158.615118,283.394099 L158.948053,283.506055 L159.035448,283.637808 L159.466183,283.682181 L159.699931,284.005762 L159.787326,283.991426 L160.638391,284.215338 L161.773837,284.307497 L163.132628,284.527313 L163.896297,284.315689 L164.650256,284.263124 L166.206033,283.957293 L166.293428,283.841923 L167.046694,283.630299 L167.713257,283.342217 L168.417969,282.890297 L168.653798,282.608358 L169.691445,282.112748 L169.789245,281.955054 L170.394076,281.724998 L170.593144,281.434867 L171.111273,281.166582 L171.434498,280.769275 L172.472145,279.629234 L172.756527,279.537758 L173.140789,278.986169 L173.473724,278.79639 L173.794867,278.200429 L174.316465,277.670003 L174.414265,277.300684 L174.749281,277.007141 L175.121058,276.207064 L175.456074,275.767432 L176.493721,274.470379 L177.111731,274.081946 L178.383126,274.352279 L178.381045,274.458092 L178.568321,274.434198 L178.568321,274.577557 L178.801375,274.543424 L179.319505,274.82741 L179.973584,275.037669 L179.973584,275.18171 L180.172651,275.155769 L180.172651,275.259533 L180.405705,275.2254 L180.405705,275.331213 L180.639453,275.337356 L180.924529,275.561269 L181.577914,275.615199 L181.811662,275.83365 L182.008648,275.803613 L182.329791,275.957211 L182.428978,276.100569 L183.229409,276.132654 L183.64974,276.430976 L184.119316,276.968912 L184.215035,277.599006 L184.078393,278.375872 L183.694824,279.281761 L183.506161,280.357631 L183.357728,280.483241 L183.357728,280.5754 L183.034504,282.128449 L182.750122,282.91419 L182.461578,284.605136 L182.546893,285.341725 L182.829194,285.906967 L183.162822,286.05647 L184.196308,287.120052 L184.667965,287.30437 L185.898437,287.8819 L186.552515,288 L186.554596,288 L186.838978,287.713966 L187.308555,286.992395 L187.730966,285.726745 L188.068063,284.079489 L188.502265,282.512104 L188.502265,282.170774 L188.638907,281.798725 L188.591742,280.651175 L188.740175,280.537171 L189.162586,279.419658 L189.733431,277.844081 L190.017813,277.64884 L190.671891,277.41264 L191.57359,277.236514 L193.03018,276.837158 L194.452089,276.392747 L194.773232,276.097156 L195.439102,275.757192 L196.664025,274.631487 L196.948407,274.539328 L197.084355,274.220526 L197.604566,273.806152 L198.605452,272.406701 L198.743481,272.034652 L198.891914,271.922696 L199.077109,271.541089 L199.262304,271.410701 L199.312938,271.117841 L199.969097,270.173723 L200.252786,269.426211 L200.352666,269.413924 L200.354747,269.162022 L200.588495,268.934014 L200.724443,268.5606 L201.008825,268.272518 L201.159339,267.847221 L201.44164,267.557091 L201.814805,266.862826 L202,266.077769 L201.922315,265.577379 L201.865439,265.701623 L201.57967,266.043636 L201.445802,266.403397 L201.159339,266.59932 L200.356828,266.658711 L199.840779,266.585667 L199.245658,265.857952 L199.087513,266.177437 L198.518056,266.912661 L198.382801,267.28471 L198.098419,267.52091 L197.899352,267.905247 L197.379141,268.578349 L197.379141,268.774272 L197.09476,269.116284 L196.202772,270.445421 L195.016691,271.606625 L194.69416,271.754762 L194.411166,272.083121 L193.65582,272.490668 L192.384425,273.018364 L191.579832,273.13032 L191.297531,273.06615 L190.866797,272.535041 L190.866797,272.429229 L190.966677,271.81074 L191.25314,270.171675 L191.439722,269.845364 L191.488275,269.486285 L191.636708,269.372281 L191.726185,268.5606 L192.010567,267.759158 L192.297029,266.225906 L192.39691,266.21157 L192.483612,265.399888 L192.918508,263.832503 L193.294447,262.233033 L193.491433,261.851426 L193.578829,261.28755 L193.767492,259.662138 L193.865291,259.648485 L193.865291,259.40068 L194.00124,259.3802 L194.102507,258.816324 L194.200307,258.698906 L194.48677,257.255082 L195.009061,255.687697 L195.011142,255.084226 L195.384307,253.525033 L195.481413,253.51138 L195.481413,253.169368 L195.620135,253.047172 L195.620135,252.548831 L195.719322,252.234125 L196.09318,250.672201 L196.479524,248.968966 L196.57663,248.955313 L196.57663,248.507489 L196.664025,248.35116 L196.950488,247.10599 L197.187704,245.670358 L197.285503,245.604822 L197.338218,245.098289 L197.709995,243.893396 L197.86051,242.272081 L197.764791,240.830305 L197.531043,240.664418 L197.531043,240.416613 L197.297295,239.847276 L196.779859,239.313436 L196.164623,238.95504 L195.597246,238.429393 L195.274716,238.223912 L194.474285,238.191827 L193.671773,238 L192.448931,238.1181 Z M192.861631,242.216103 L192.727764,241.8816 L192.912265,241.764182 L193.281962,242.158077 L193.379761,242.143741 L193.714777,241.994238 L193.712696,242.453668 L193.478948,242.483705 L192.861631,242.216103 Z M194.468042,241.994238 L194.517289,241.792171 L194.886985,241.936212 L194.935538,241.98195 L195.270554,242.027689 L195.317026,242.229756 L195.07218,242.265937 L194.468042,241.994238 Z M192.526616,243.613506 L192.526616,243.507011 L192.760364,243.38345 L192.95735,243.448985 L192.85955,243.618967 L192.674355,243.699521 L192.526616,243.613506 Z M191.772657,244.019005 L191.772657,243.823082 L191.872537,243.757547 L192.292868,243.646956 L192.290787,244.001256 L191.919009,244.143249 L191.772657,244.019005 Z M190.080932,244.606775 L189.981745,244.214928 L190.080932,244.149393 L190.365313,243.913193 L190.599061,243.881108 L190.686457,244.117308 L190.596981,244.876425 L190.080932,244.606775 Z M193.3756,244.742624 L193.426233,244.539191 L193.708534,244.604727 L193.708534,244.694838 L193.524033,244.826591 L193.3756,244.742624 Z M184.12764,271.812788 L182.770237,271.201808 L181.452369,270.72736 L180.081094,270.171675 L179.898673,269.841268 L179.713478,269.813279 L179.480424,269.243941 L179.480424,268.942206 L179.715559,268.162609 L180.087336,267.310651 L180.942563,265.947381 L181.178392,265.363707 L181.598722,264.756141 L181.598722,264.492634 L181.931657,264.000437 L182.21812,263.304807 L182.402621,263.188755 L182.786883,262.086943 L183.024099,261.699876 L183.916087,260.224649 L184.064521,259.654629 L184.397456,259.358355 L184.436298,259.104406 L184.919747,258.382835 L185.675093,256.927406 L185.811042,256.40995 L186.431133,255.314283 L187.235032,253.905274 L187.991072,252.395915 L188.078467,252.032058 L188.362849,251.795858 L188.362849,251.548052 L188.561223,251.425856 L188.561223,251.163715 L188.797051,251.039471 L188.797051,250.830578 L189.35333,249.914449 L189.639793,249.115055 L189.837473,248.994907 L189.837473,248.745054 L189.973421,248.673375 L190.542185,247.637781 L190.5949,247.289625 L191.199731,246.353699 L190.91535,246.235599 L191.43556,246.020562 L191.6811,245.986429 L192.000162,246.545527 L191.764333,247.66577 L191.676938,247.680106 L191.342616,249.285037 L190.868877,250.846279 L190.818244,251.651817 L190.66981,251.829991 L190.633742,252.189752 L190.298033,252.983002 L190.111451,253.757137 L189.824988,255.396202 L189.625921,255.933454 L189.203509,257.433256 L188.917047,258.784239 L188.679137,260.36596 L188.582031,260.525702 L188.108292,261.899895 L187.82183,263.343036 L187.448665,264.942506 L186.977007,266.55563 L186.591358,268.168753 L186.117619,269.782559 L185.882484,271.059815 L185.410826,271.832585 L184.980785,272.038748 L184.12764,271.812788 Z M184.446009,254.094371 L184.409247,253.690919 L184.72831,253.649277 L184.72831,254.106659 L184.642995,254.118264 L184.446009,254.094371 Z M191.746299,258.132982 L191.980048,258.098849 L191.980048,258.311156 L191.746299,258.343241 L191.746299,258.132982 Z M192.174953,258.926232 L192.177034,258.530972 L192.262349,258.363038 L192.548811,258.429256 L192.695164,258.763076 L192.410782,259.050476 L192.311595,259.064129 L192.174953,258.926232 Z M190.462419,264.36839 L190.277918,264.198408 L190.227284,264.006581 L190.5623,263.908278 L190.846682,263.974496 L190.931996,264.108297 L190.88275,264.362246 L190.745414,264.379995 L190.462419,264.36839 Z M189.707073,265.075625 L189.707073,264.984149 L189.806954,264.418224 L189.991455,264.394331 L190.090642,264.472154 L190.127404,264.822358 L189.894349,265.101566 L189.707073,265.075625 Z M189.367896,267.877258 L189.367896,267.733217 L189.51841,267.462884 L189.802792,267.370725 L190.173876,267.462884 L190.221042,267.615117 L190.121161,267.772811 L189.566963,267.955081 L189.367896,267.877258 Z M178.295731,268.004915 L178.011349,268.450009 L177.960715,268.654124 L177.641652,268.592002 L177.25739,268.698497 L177.208837,268.916265 L177.442585,269.131985 L177.442585,269.382521 L177.120054,269.322447 L176.973702,269.448056 L176.788507,269.262373 L176.788507,269.170214 L177.122135,268.166705 L177.35727,268.13462 L177.641652,268.304602 L177.8754,268.312112 L178.295731,268.004915 Z M175.565665,269.340196 L175.419312,269.202299 L175.419312,269.006376 L175.602426,268.87394 L175.935361,269.038461 L175.935361,269.380473 L175.565665,269.340196 Z M188.140892,271.808692 L188.471746,271.410701 L188.425274,271.115793 L188.043786,270.867305 L188.007025,270.675478 L188.092339,270.557377 L188.326087,270.577857 L188.525155,270.905534 L189.043284,270.833854 L188.89277,271.457122 L188.471746,271.855112 L188.090258,272.012807 L188.140892,271.808692 Z M175.93328,270.837268 L175.93328,270.745791 L176.081714,270.619499 L176.315462,270.585367 L176.45141,270.67343 L176.45141,270.765589 L176.315462,270.889832 L176.079633,270.921917 L175.93328,270.837268 Z M162.486873,279.305654 L162.486873,279.162295 L161.871637,279.089934 L161.635808,278.872165 L161.214784,278.734268 L160.599548,278.214082 L160.084193,276.882897 L159.949632,276.051418 L160.002346,274.54752 L160.238175,274.1625 L160.32349,273.795912 L160.609953,273.4539 L160.758386,273.143973 L161.178716,272.68113 L161.847361,272.182789 L162.16573,272.096774 L162.366878,271.808692 L162.68594,271.670794 L162.921076,271.390904 L163.020956,271.376568 L163.872021,271.153339 L165.230811,270.821567 L166.835835,270.691861 L168.255663,270.797673 L169.809359,271.039335 L170.414885,271.299428 L171.129307,271.408653 L171.734833,271.773193 L171.881185,272.104966 L171.881185,272.406701 L171.54617,273.199951 L171.125839,273.914012 L170.085418,275.251341 L169.701849,275.961307 L169.133085,276.642601 L168.848704,276.721106 L168.52756,277.119097 L167.958796,277.603102 L166.921149,278.338326 L165.449993,278.999823 L163.943463,279.405322 L162.486873,279.305654 Z M173.242057,271.457122 L173.39049,271.095313 L173.574992,271.07142 L173.672791,271.25369 L173.572911,271.623008 L173.339163,271.653045 L173.242057,271.457122 Z M175.598264,271.984818 L175.69537,271.825075 L175.931199,271.741108 L175.832013,272.202586 L175.746698,272.212826 L175.598264,271.984818 Z M174.657723,272.416941 L174.709051,272.212826 L174.844306,272.141147 L174.992739,272.474967 L174.942105,272.679082 L174.757604,272.705023 L174.657723,272.416941 Z M186.481767,273.586336 L186.814702,273.539915 L187.050531,273.257977 L187.235032,273.232036 L187.101164,273.644362 L186.913889,273.932444 L186.481767,274.032112 L186.481767,273.586336 Z M174.274155,273.767923 L174.237393,273.574048 L174.322708,273.509878 L174.70697,273.418402 L174.842225,273.492129 L174.792285,273.655967 L174.422588,273.800008 L174.274155,273.767923 Z M188.419032,274.420545 L188.419032,274.221892 L188.469665,274.165913 L188.937161,274.09833 L189.037042,274.230083 L189.037042,274.479937 L188.750579,274.517483 L188.419032,274.420545 Z M186.010109,274.949606 L185.961556,274.561856 L186.207096,274.567317 L186.296572,274.713406 L186.294491,274.963259 L186.207096,274.975547 L186.010109,274.949606 Z M173.567362,275.267725 L173.802497,275.23564 L173.80111,275.445217 L173.567362,275.47935 L173.567362,275.267725 Z M189.219463,275.51553 L189.453211,275.575604 L189.453211,275.679369 L189.168829,275.719646 L189.219463,275.51553 Z M186.477605,276.891089 L186.477605,276.73476 L186.995041,276.110809 L187.192721,276.295127 L186.993654,276.714963 L186.626039,276.923174 L186.477605,276.891089 Z M186.475524,277.796295 L186.672511,277.768306 L186.67043,278.110318 L186.473443,278.138307 L186.475524,277.796295 Z M185.720178,279.003918 L185.915084,279.028494 L186.053113,279.297462 L185.718097,279.3432 L185.720178,279.003918 Z" id="Fill-4" fill="#FFFFFF"></path>
                <path d="M203.846001,247.213408 L203.348709,247.503335 L203.030017,248.008775 L202.720621,248.257985 L202.224657,248.897508 L201.277877,250.279045 L200.957193,251.041418 L200.775937,251.849421 L200.680994,252.780274 L200.774609,254.371709 L201.079358,254.784486 L201.174966,255.190242 L201.398714,255.465426 L201.573994,256.209547 L201.572003,257.085644 L200.99039,258.65602 L200.302547,260.255177 L200.267359,260.570376 L200.125275,260.752896 L199.851068,261.563005 L199.767411,261.574939 L199.720935,261.838189 L199.495195,262.182169 L199.399588,262.559846 L199.043715,263.273078 L198.63008,264.210249 L198,265.855037 L198,266.260091 L198.102911,266.396279 L198.672572,267.144612 L199.166544,267.220428 L199.934724,267.158652 L200.208932,266.957178 L200.337072,266.587224 L200.610616,266.235521 L200.665059,266.107757 L200.978439,265.35802 L201.060104,265.34749 L201.062096,265.090558 L201.334312,264.740962 L201.511584,264.093015 L202.199427,262.493857 L202.829507,261.011934 L203.008771,260.269919 L203.243806,259.977887 L203.37593,259.34047 L203.873222,258.590032 L204.146102,258.401193 L204.501974,258.294489 L205.63333,259.100386 L206.033686,259.659179 L206.257434,260.354159 L206.220918,261.235872 L206.076842,261.916813 L205.993186,262.038259 L205.804627,262.888382 L205.446762,263.709021 L204.902331,265.28782 L204.402383,266.952966 L204.130167,267.303966 L203.809484,268.538084 L203.45162,270.184977 L203.176084,271.883117 L202.806269,273.420498 L202.804277,275.067392 L202.979558,275.821341 L203.437677,277.40014 L203.568473,277.486486 L203.614949,277.789049 L204.288185,278.204633 L204.51127,278.521236 L204.832617,278.689014 L206.189712,279 L207.583325,278.588628 L209.026068,278.377325 L209.616976,277.976483 L210.966768,276.901018 L212.055631,275.753949 L213.097355,274.573886 L213.548835,273.777817 L213.630499,273.767989 L213.951183,273.3159 L213.951183,273.11232 L214.448475,272.365391 L214.633714,272.047385 L214.625747,271.922429 L214.806339,270.302211 L214.808331,269.937873 L214.901946,269.775711 L214.985603,268.941032 L215.127686,268.81397 L215.627634,267.148824 L216.079778,265.475254 L216.259042,264.679186 L216.351994,264.665146 L216.351994,264.409617 L216.43565,264.395577 L216.899081,262.884872 L217,262.635662 L216.863892,262.635662 L216.401125,263.011934 L215.596429,264.467181 L215.596429,264.671464 L215.002865,265.945595 L214.598525,266.626536 L214.552049,266.943138 L214.328301,267.179712 L214.230702,267.501931 L213.735402,268.196911 L213.37953,268.977536 L212.514415,270.388557 L212.465947,270.448227 L212.158542,271.113724 L211.886326,271.409968 L211.470035,272.187083 L210.47678,273.468234 L209.436384,274.349947 L209.209316,274.423657 L208.808296,274.388557 L208.491596,274.220077 L208.088584,273.45981 L208.090576,272.433485 L208.188175,271.650755 L208.686131,270.024219 L208.864731,269.1755 L208.946395,269.16497 L209.090471,268.063531 L209.316211,267.612847 L209.411154,267.246402 L209.63623,266.903826 L209.682706,266.587224 L209.768354,266.574588 L209.768354,266.373113 L210.041234,265.548965 L210.634134,264.019305 L210.682601,263.659881 L210.908341,263.26325 L211.085613,262.413829 L211.217074,262.286767 L211.442814,261.229554 L211.491281,260.397683 L211.409617,260.249561 L211.493273,259.671113 L211.18786,258.123201 L210.776217,257.457704 L210.280253,256.924886 L209.383933,255.817129 L209.067233,255.755353 L208.971625,255.513163 L208.438481,255.241488 L207.354265,254.217971 L206.636545,253.851527 L206.411469,253.588277 L206.234196,253.561601 L205.915505,253.09477 L205.821889,252.488943 L206.461928,250.951562 L206.961212,249.380484 L207.044868,248.599158 L206.867596,248.315549 L206.32582,247.829765 L205.701052,247.505441 L205.654576,247.363636 L205.38236,247.148122 L204.66132,247 L203.846001,247.213408 Z M208.652934,262.007371 L208.652934,261.749737 L208.925149,261.709021 L209.055282,261.840295 L209.05329,262.041769 L208.960338,262.109863 L208.73659,262.142857 L208.652934,262.007371 Z M206.210959,266.334503 L206.48251,265.819937 L206.659783,265.904177 L206.48251,266.496665 L206.341091,266.517024 L206.210959,266.334503 Z" id="Fill-5" fill="#FFFFFF"></path>
                <path d="M229.462855,238.132499 L229.138676,238.34101 L227.528591,238.573929 L226.891715,238.814519 L226.840387,238.981886 L226.612787,239.014662 L226.516209,239.375896 L226.33656,239.511185 L226.15421,240.152758 L225.780054,241.58793 L225.416029,242.294359 L225.186403,243.052392 L224.947996,243.342494 L224.813597,244.071238 L224.680549,244.251158 L224.536695,244.982691 L224.401621,245.108216 L224.209815,245.498739 L223.570914,245.993169 L222.884737,246.199589 L221.274651,246.378811 L220.5905,246.680769 L220.493246,246.854412 L220.167717,246.997371 L219.85502,247.456933 L219.710491,247.839088 L219.480864,248.127099 L219.346466,249.017631 L219.753715,249.466732 L220.125844,249.666875 L220.667492,249.738704 L222.002701,249.542745 L222.279604,249.664783 L222.457226,249.944426 L222.55448,250.332159 L222.228276,251.413071 L221.816974,252.89148 L221.720396,252.906124 L221.720396,253.175306 L221.49077,253.554671 L221.49077,253.769459 L221.357722,253.936826 L220.982215,255.22346 L220.899145,255.23392 L220.897118,255.491247 L220.752589,255.603523 L220.343314,256.695592 L220.19946,257.480125 L219.87258,258.237461 L219.835434,258.550577 L219.508555,259.161466 L219.32688,260.004578 L219.134399,260.341404 L218.676497,261.893733 L218.417154,262.514385 L218.312472,262.763344 L217.841063,264.264765 L217.757992,264.278713 L217.757992,264.531855 L217.661414,264.545802 L217.479063,265.336612 L217.019136,266.999124 L216.512607,268.653268 L216.368077,268.780188 L216.280955,269.608654 L216.185727,269.769745 L216.183701,270.131676 L216,271.739097 L216.008104,271.86532 L216.083071,273.413464 L216.178298,273.400912 L216.27285,274.767045 L216.50045,275.002056 L216.583521,275.445579 L216.908375,275.653393 L216.906348,275.853536 L217.554705,276.482557 L218.061234,276.77266 L219.249212,277 L220.031292,276.995816 L221.629221,276.762897 L223.108285,276.239875 L224.397569,275.490907 L225.538946,274.561323 L226.646556,273.368833 L226.911301,273.223782 L227.839262,272.069647 L228.021612,271.990148 L229.031968,270.825552 L229.30887,270.679106 L229.996398,269.359696 L230.093652,269.347143 L230.093652,269.092606 L230.416479,268.831095 L230.41783,268.575861 L231.201936,267.550738 L232.069788,266.192275 L232.069788,265.99004 L232.445295,265.158784 L232.479063,264.807313 L232.757992,264.60717 L232.805268,264.291265 L233.032868,264.164345 L233.131472,263.788467 L233.457677,263.37772 L233.867627,262.610621 L234,262.028324 L234,262.026232 L233.964205,261.255646 L233.412427,260.572231 L232.681,260.369996 L231.802341,260.713098 L231.249212,261.650353 L231.114813,262.085507 L230.839937,262.379794 L230.837911,262.635029 L230.740657,262.647582 L230.740657,262.849119 L230.657587,262.860975 L230.657587,263.116209 L230.42796,263.563916 L229.500675,264.87705 L229.415579,265.250836 L229.089374,265.553491 L229.089374,265.753634 L228.812472,265.993527 L228.534894,266.651837 L228.257992,266.946124 L228.257992,267.146267 L228.029041,267.289227 L227.932463,267.503317 L226.919406,268.935002 L226.053579,270.080769 L224.811571,271.385534 L224.439442,271.599624 L223.57294,272.329066 L222.334984,272.667984 L222.190455,272.528511 L221.733904,272.44692 L221.409725,271.824873 L221.373931,271.372982 L221.557632,269.606562 L221.968933,268.113509 L222.115489,267.327582 L222.344439,266.986571 L222.429536,266.35755 L222.52679,266.251551 L222.900946,265.070916 L223.214993,264.303818 L223.770824,262.696397 L223.915353,262.567385 L224.095002,261.832365 L224.650833,260.155208 L225.160738,258.556156 L225.572715,257.114707 L225.894867,256.600054 L226.031292,255.454287 L226.405448,254.637675 L226.405448,254.476585 L226.766772,253.767367 L227.419856,252.131354 L227.879109,250.591578 L228.517335,249.107591 L229.11909,248.561556 L229.85457,248.349557 L231.319451,248.297953 L231.968483,248.043415 L232.103557,247.823049 L232.283206,247.796549 L232.752589,247.21983 L233.113913,246.551059 L233.295588,245.653554 L233.261819,245.308359 L232.888339,244.843219 L232.287258,244.781851 L230.7724,245.000823 L230.689329,244.851587 L230.461729,244.847403 L230.269923,244.512669 L230.27195,244.003594 L230.366502,243.627716 L230.825754,242.073992 L231.05538,241.477747 L231.659838,239.958194 L231.792886,239.171569 L231.711842,238.275458 L231.661864,238.228735 L231.158037,238.046723 L230.378658,238 L229.462855,238.132499 Z M227.564385,244.796495 L227.888564,244.548932 L228.068888,244.522432 L228.297839,244.690496 L228.248537,245.059401 L228.068888,245.288136 L227.971634,245.353688 L227.659613,245.600554 L227.564385,244.796495 Z M227.560333,247.263067 L227.657587,247.195422 L227.560333,247.101976 L227.657587,246.981332 L227.740657,247.021779 L227.740657,247.236567 L227.657587,247.342566 L227.560333,247.263067 Z M225.49167,248.166151 L225.443719,247.972284 L225.588249,247.845364 L225.588249,248.207295 L225.49167,248.166151 Z M225.174921,250.007886 L225.35457,249.979294 L225.35457,250.181529 L225.174921,250.208029 L225.174921,250.007886 Z M218.573165,272.398105 L218.573165,272.290711 L218.704187,272.124738 L219.076992,272.218882 L219.076992,272.324882 L218.933138,272.439249 L218.704187,272.471328 L218.573165,272.398105 Z" id="Fill-6" fill="#FFFFFF"></path>
                <path d="M61,182 L61,116 L76.105586,116 C80.0898639,116 83.6839326,117.035145 86.8857201,119.103391 C89.6261629,120.860412 91.5841154,123.578348 92.7588869,127.261964 C93.3984156,129.226696 93.7195612,131.5619 93.7195612,134.262129 C93.7195612,138.683286 92.5268332,142.227294 90.1420678,144.894154 C89.1468617,146.016468 87.9713996,146.875911 86.618444,147.474524 C88.8616291,148.314217 90.7650213,149.981344 92.330002,152.47182 C93.3618119,154.157335 94.1284176,156.333182 94.6256754,158.99936 C94.8743043,160.367522 95,161.892998 95,163.578513 C95,167.754504 94.1988625,171.298512 92.5972781,174.210537 C91.3513711,176.491941 89.5895592,178.314341 87.3146049,179.684545 C84.7516555,181.228409 82.2080439,182 79.6816982,182 L61,182 Z M71.8892545,142.947128 L76.105586,142.947128 C79.2341662,142.947128 81.3357709,141.437316 82.4034938,138.420414 C82.7943937,137.297418 82.9905342,135.91155 82.9905342,134.262129 C82.9905342,131.525806 82.3130205,129.456198 80.9614463,128.051943 C79.7162299,126.753245 78.0959984,126.105599 76.105586,126.105599 L71.8892545,126.105599 L71.8892545,142.947128 Z M71.8892545,172.157954 L76.105586,172.157954 C79.5200894,172.157954 81.8862076,170.420682 83.2046313,166.946819 C83.665976,165.75436 83.8959577,164.386198 83.8959577,162.840972 C83.8959577,159.159399 83.1846029,156.47279 81.7625838,154.789318 C80.4807638,153.246136 78.5953281,152.47182 76.105586,152.47182 L71.8892545,152.47182 L71.8892545,172.157954 Z" id="Fill-7" fill="#FFFFFF"></path>
                <path d="M127.472555,183 C122.882509,183 118.989631,181.465283 115.793208,178.399271 C112.598924,175.33189 111,171.61518 111,167.240929 L111,116 L121.193766,116 L121.193766,167.134874 C121.193766,168.721592 121.780442,170.070199 122.955933,171.180012 C124.130711,172.29051 125.546433,172.847469 127.197395,172.847469 C128.851209,172.847469 130.255525,172.29051 131.411769,171.180012 C132.568725,170.070199 133.146847,168.721592 133.146847,167.134874 L133.146847,116 L144,116 L144,167.240929 C144,171.682918 142.382542,175.422208 139.152615,178.451272 C135.919124,181.483757 132.026246,183 127.472555,183" id="Fill-8" fill="#FFFFFF"></path>
                <path d="M175.981305,116 C181.630623,116 185.778268,117.528718 188.424239,120.584791 C190.746836,123.253062 191.909176,126.973647 191.909176,131.749272 L191.909176,141.335282 C191.909176,146.005948 190.102866,149.957579 186.49302,153.187447 L194,182 L183.038615,182 L176.893828,157.139078 L170.136991,157.139078 L170.136991,182 L160,182 L160,116 L175.981305,116 Z M182.040738,131.90671 C182.040738,128.079122 180.110213,126.166691 176.249163,126.166691 L170.136991,126.166691 L170.136991,147.287263 L176.249163,147.287263 C177.859091,147.287263 179.226141,146.726347 180.352396,145.603152 C181.477957,144.479275 182.040738,143.12776 182.040738,141.547244 L182.040738,131.90671 Z" id="Fill-9" fill="#FFFFFF"></path>
                <path d="M224.526732,183 C219.936686,183 216.033115,181.44602 212.819584,178.334631 C209.60534,175.225985 208,171.498765 208,167.15297 L208,130.899836 C208,126.483405 209.613181,122.729439 212.846672,119.637252 C216.078738,116.546436 219.972328,115 224.526732,115 C229.118204,115 233.011082,116.556723 236.206792,119.663312 C239.400363,122.774015 241,126.519066 241,130.899836 L241,138.478403 L230.201024,138.478403 L230.201024,130.688615 C230.201024,129.100346 229.614348,127.738385 228.437431,126.607531 C227.26194,125.477364 225.84907,124.910909 224.195256,124.910909 C222.544294,124.910909 221.138552,125.477364 219.982308,126.607531 C218.823926,127.738385 218.245804,129.100346 218.245804,130.688615 L218.245804,167.048045 C218.245804,168.637 218.823926,169.988675 219.982308,171.101012 C221.138552,172.216092 222.544294,172.77226 224.195256,172.77226 C225.84907,172.77226 227.26194,172.216092 228.437431,171.105126 C229.614348,169.996218 230.201024,168.648658 230.201024,167.062446 L230.201024,154.008603 L224.41624,154.008603 L224.41624,143.937221 L241,143.937221 L241,167.15297 C241,171.571457 239.381829,175.314451 236.150476,178.387436 C232.919124,181.461793 229.04478,183 224.526732,183" id="Fill-10" fill="#FFFFFF"></path>
                <polyline id="Fill-11" fill="#FFFFFF" points="257 182 257 116 286 116 286 125.99936 267.188152 125.99936 267.188152 144.00066 280.932777 144.00066 280.932777 154.000021 267.188152 154.000021 267.188152 171.998597 286 171.998597 286 182 257 182"></polyline>
                <path d="M313.980611,116 C319.630623,116 323.778268,117.528718 326.424239,120.584791 C328.746836,123.253062 329.909176,126.973647 329.909176,131.749272 L329.909176,141.335282 C329.909176,146.005948 328.102866,149.957579 324.493714,153.187447 L332,182 L321.038615,182 L314.893828,157.139078 L308.136991,157.139078 L308.136991,182 L298,182 L298,116 L313.980611,116 Z M320.041432,131.90671 C320.041432,128.079122 318.110907,126.166691 314.249163,126.166691 L308.136991,126.166691 L308.136991,147.287263 L314.249163,147.287263 C315.858397,147.287263 317.226141,146.726347 318.352396,145.603152 C319.477957,144.479275 320.041432,143.12776 320.041432,141.547244 L320.041432,131.90671 Z" id="Fill-12" fill="#FFFFFF"></path>
                <path d="M105.498824,266.500687 L197.498962,325.547206 L289.503251,266.500687 L197.498962,207.454168 L105.498824,266.500687 Z M197.498962,331 L97,266.500687 L197.498962,202 L298,266.500687 L197.498962,331 Z" id="Fill-13" fill="#FFFFFF"></path>
                <path d="M109.754375,351.34144 C108.097226,348.959451 109.551798,346.889519 110.489631,346.205447 L115.332888,342.658355 C116.240833,341.995404 118.536266,341.22957 120.243892,343.683101 C121.879123,346.032385 120.488978,348.09891 119.565093,348.775488 L118.55752,347.326944 C119.798222,346.418709 119.222372,345.187515 118.874337,344.684681 C118.503056,344.152549 117.543969,343.180267 116.293304,344.098722 L111.477278,347.624693 C110.207351,348.55405 110.793165,349.798871 111.164446,350.333728 C111.514472,350.832474 112.461604,351.790448 113.716255,350.871992 L114.723828,352.321217 C113.787987,353.009378 111.444733,353.765673 109.754375,351.34144" id="Fill-14" fill="#FFFFFF"></path>
                <path d="M120.00202,362.608453 L122.125896,357.430469 L120.978922,356.242452 L117.188487,359.700511 L116,358.471528 L125.288275,350 L127.918346,352.721319 C129.949152,354.821644 128.647508,356.79647 127.825945,357.542963 L127.396751,357.935067 C126.718476,358.55216 125.173109,359.415049 123.531993,358.60353 L121.347855,364 L120.00202,362.608453 Z M126.58858,356.33934 C127.722162,355.307385 127.082722,354.317046 126.632102,353.848862 L125.212613,352.379935 L122.22767,355.101904 L123.671263,356.594891 C124.123893,357.062425 125.078699,357.717882 126.212281,356.683976 L126.58858,356.33934 Z" id="Fill-15" fill="#FFFFFF"></path>
                <polyline id="Fill-16" fill="#FFFFFF" points="126 369.639794 133.729295 360 139 364.360206 137.949723 365.671929 133.968843 362.378234 131.886963 364.97291 135.57549 368.025315 134.534872 369.321999 130.846344 366.271555 128.332376 369.408314 132.311324 372.702008 131.270705 374 126 369.639794"></polyline>
                <path d="M143.579951,382.077655 L144.650364,378.635848 L141.24974,376.634407 L138.580298,379.136377 L137,378.206631 L146.78564,369 L149,370.302451 L145.146375,383 L143.579951,382.077655 Z M146.932015,371.28938 L142.5359,375.375685 L145.176899,376.931764 L146.932015,371.28938 Z" id="Fill-17" fill="#FFFFFF"></path>
                <polyline id="Fill-18" fill="#FFFFFF" points="159.370381 378.39683 154.650336 388 153 387.317681 157.717945 377.711944 154.856803 376.530242 155.611282 375 163 378.054708 162.24762 379.586234 159.370381 378.39683"></polyline>
                <polyline id="Fill-19" fill="#FFFFFF" points="170 380.564439 165.767133 393 164 392.434872 168.233578 380 170 380.564439"></polyline>
                <g id="Group-23" transform="translate(174.000000, 381.000000)">
                    <mask id="mask-4" fill="white">
                        <use xlink:href="#path-3"></use>
                    </mask>
                    <g id="Clip-21"></g>
                    <polyline id="Fill-20" fill="#FFFFFF" mask="url(#mask-4)" points="8.76395018 2.30048824 3.02870819 14.2927853 0.570362989 13.7709971 0.0524626335 0.455205882 1.78978292 0.824805882 2.12070107 12.3027882 7.04277224 1.93700294 8.76395018 2.30048824"></polyline>
                    <polyline id="Fill-22" fill="#FFFFFF" mask="url(#mask-4)" points="12.7544733 15.7990412 19.8376014 16.3065618 19.9593416 14.5733824 14.6121886 14.1895147 14.9074591 9.99754412 19.8591246 10.3528765 19.9815374 8.61765882 15.0318897 8.26436471 15.2740249 4.79596765 20.6178149 5.18051471 20.741573 3.42967059 13.6611352 2.92011176 12.7544733 15.7990412"></polyline>
                </g>
                <path d="M213.842584,395.472558 L209.804981,396 L208,383.562533 L211.943189,383.048294 C214.970697,382.649577 215.787798,384.818756 215.950941,385.914569 L215.981486,386.125809 C216.073124,386.752271 215.971073,387.995291 215.11093,388.76434 C216.359838,389.239632 216.810389,390.550646 216.904109,391.19427 L216.965201,391.613451 C217.123484,392.713884 216.849266,395.075821 213.842584,395.472558 Z M214.155679,386.170038 C213.937693,384.670228 212.811662,384.656365 212.152844,384.743502 L210.02505,385.024056 L210.53461,388.528014 L212.77348,388.236898 C213.50658,388.138539 214.393798,387.809135 214.177894,386.324508 L214.155679,386.170038 Z M215.143559,391.443138 C214.926267,389.926165 213.840501,389.80074 213.088658,389.899099 L210.776894,390.204079 L211.339909,394.075068 L213.560035,393.784611 C214.238986,393.695494 215.417777,393.326483 215.198402,391.808849 L215.143559,391.443138 Z" id="Fill-24" fill="#FFFFFF"></path>
                <path d="M228.203874,392.825344 C225.27938,393.591085 223.923122,391.658472 223.581485,390.521076 L221,381.901855 L222.705441,381.455867 L225.291042,390.074447 C225.723233,391.523266 227.109676,391.393827 227.72572,391.230427 C228.34245,391.068948 229.580026,390.513386 229.145777,389.068412 L226.562919,380.445987 L228.270418,380 L230.861507,388.637163 C231.199028,389.772637 231.126996,392.059604 228.203874,392.825344" id="Fill-25" fill="#FFFFFF"></path>
                <path d="M243.233189,386.768126 L239.016742,383.135721 L237.507304,383.777978 L239.543306,388.337232 L237.983969,389 L233,377.825886 L236.451551,376.358053 C239.115883,375.226092 240.561635,377.052229 241.000219,378.041894 L241.233299,378.555956 C241.597035,379.372558 241.906276,381.048707 240.592493,382.261431 L245,386.016903 L243.233189,386.768126 Z M239.448761,378.756581 C238.84144,377.391946 237.691142,377.640003 237.097609,377.891906 L235.234284,378.685433 L236.836297,382.272328 L238.729824,381.467264 C239.324014,381.216002 240.262242,380.575668 239.652952,379.211032 L239.448761,378.756581 Z" id="Fill-26" fill="#FFFFFF"></path>
                <path d="M255.057927,381.360593 C252.47193,382.936217 250.462793,381.23223 249.82458,380.186986 L246.534785,374.790086 C245.917023,373.780107 245.302082,371.289013 247.967768,369.661903 C250.52203,368.104616 252.490265,369.637217 253.176432,370.760043 L251.602408,371.721357 C250.770263,370.355205 249.456461,370.870069 248.907104,371.206494 C248.329539,371.55773 247.252687,372.501411 248.096115,373.88308 L251.366869,379.247536 C252.21735,380.64331 253.552308,380.118572 254.129873,379.765926 C254.675704,379.433028 255.737042,378.49922 254.884445,377.10133 L253.740598,375.221725 L251.780121,376.417902 L250.82809,374.860615 L254.363297,372.70383 L256.468342,376.157649 C257.10585,377.200071 257.659438,379.772274 255.057927,381.360593" id="Fill-27" fill="#FFFFFF"></path>
                <polyline id="Fill-28" fill="#FFFFFF" points="264.697419 374 257 364.327997 262.306452 360 263.354194 361.314603 259.346452 364.582816 261.41871 367.1885 265.131613 364.161385 266.167097 365.462267 262.456129 368.491343 264.96 371.63672 268.965161 368.368507 270 369.672003 264.697419 374"></polyline>
                <path d="M279.611977,361.683527 L274.024807,359.83975 L272.839692,361.080531 L276.7135,364.717609 L275.489178,366 L266,357.084656 L268.709327,354.246343 C270.802366,352.056729 272.962812,353.257947 273.801266,354.046481 L274.240095,354.458483 C274.932731,355.107182 275.932135,356.623541 275.176908,358.343172 L281,360.231288 L279.611977,361.683527 Z M272.604457,355.375256 C271.446167,354.288635 270.443324,354.99736 269.975605,355.485078 L268.511922,357.019172 L271.561033,359.879313 L273.049477,358.321344 C273.517196,357.834309 274.149303,356.827496 272.991012,355.740874 L272.604457,355.375256 Z" id="Fill-29" fill="#FFFFFF"></path>
                <path d="M287.182819,351.30893 C285.847311,353.176458 283.762067,353.479337 282.162763,352.306017 L283.163733,350.900848 C284.0933,351.581654 285.101542,351.264034 285.785164,350.307822 C286.559362,349.220943 286.439034,348.077107 285.584176,347.447227 C284.925017,346.966105 284.228834,347.029093 283.556452,347.329292 C283.014976,347.572533 282.170036,347.992676 280.658002,348.8008 C279.670916,349.334858 278.369787,349.262488 277.34171,348.508642 C275.798603,347.380218 275.555303,345.370632 276.77445,343.661244 C278.044505,341.882167 280.079502,341.499548 281.68079,342.670857 L280.667919,344.089428 C279.768104,343.428724 278.781679,343.743664 278.131776,344.656991 C277.533442,345.497948 277.517574,346.521169 278.362515,347.140998 C278.84581,347.498153 279.454061,347.500164 280.07223,347.181873 C281.076506,346.660546 281.957148,346.155972 282.80341,345.763302 C284.11644,345.113989 285.446659,345.229244 286.603658,346.077572 C288.232053,347.272335 288.450891,349.527172 287.182819,351.30893" id="Fill-30" fill="#FFFFFF"></path>
            </g>
        </g>
    </g>
</svg>